<svg xmlns="http://www.w3.org/2000/svg" width="960" height="540" viewBox="0 0 960 540">
  <rect width="960" height="540" fill="#f8fafc"/>
  <text x="40" y="52" font-size="30" font-family="Segoe UI, Arial, sans-serif" fill="#0f172a">AI Decision Extraction System - Repository Preview</text>
  <text x="40" y="82" font-size="15" font-family="Segoe UI, Arial, sans-serif" fill="#334155">Decision quality summary across ranking, classification, structure discovery, and policy learning</text>

  <line x1="90" y1="455" x2="900" y2="455" stroke="#94a3b8" stroke-width="2"/>
  <line x1="90" y1="120" x2="90" y2="455" stroke="#94a3b8" stroke-width="2"/>

  <g font-size="12" fill="#475569" font-family="Segoe UI, Arial, sans-serif">
    <text x="58" y="459">0.0</text>
    <text x="58" y="392">0.2</text>
    <text x="58" y="325">0.4</text>
    <text x="58" y="258">0.6</text>
    <text x="58" y="191">0.8</text>
    <text x="58" y="124">1.0</text>
  </g>

  <rect x="150" y="128" width="140" height="327" rx="8" fill="#2E86AB"/>
  <rect x="340" y="187" width="140" height="268" rx="8" fill="#F18F01"/>
  <rect x="530" y="334" width="140" height="121" rx="8" fill="#6A4C93"/>
  <rect x="720" y="208" width="140" height="247" rx="8" fill="#2A9D8F"/>

  <g font-size="14" fill="#0f172a" font-family="Segoe UI, Arial, sans-serif">
    <text x="182" y="476">SVM Classif</text>
    <text x="373" y="476">NN Ranking</text>
    <text x="548" y="476">Lambda Structure</text>
    <text x="736" y="476">Q-Learning Policy</text>
  </g>

  <g font-size="14" fill="#0f172a" font-family="Segoe UI, Arial, sans-serif">
    <text x="202" y="118">0.974</text>
    <text x="392" y="177">0.799</text>
    <text x="582" y="324">0.362</text>
    <text x="772" y="198">0.737</text>
  </g>
</svg>
